<svg xmlns="http://www.w3.org/2000/svg" xmlns:xlink="http://www.w3.org/1999/xlink" width="75" zoomAndPan="magnify" viewBox="0 0 375 374.999991" height="75" preserveAspectRatio="xMidYMid meet" version="1.0"><defs><clipPath id="6119d23aa6"><path d="M 91.917969 90.503906 L 230 90.503906 L 230 229 L 91.917969 229 Z M 91.917969 90.503906 " clip-rule="nonzero"/></clipPath><clipPath id="5ca6981a39"><path d="M 145 146 L 283.039062 146 L 283.039062 284.753906 L 145 284.753906 Z M 145 146 " clip-rule="nonzero"/></clipPath></defs><g clip-path="url(#6119d23aa6)"><path fill="#5d51b4" d="M 197.335938 131.917969 C 193.957031 131.917969 190.707031 130.671875 188.167969 128.4375 C 180.878906 122.027344 171.347656 118.121094 160.882812 118.121094 C 137.996094 118.121094 119.445312 136.683594 119.445312 159.566406 C 119.4375 182.453125 137.996094 200.992188 160.882812 200.992188 L 216.125 200.992188 C 223.75 200.992188 229.9375 207.179688 229.9375 214.808594 C 229.9375 222.4375 223.75 228.625 216.125 228.625 L 160.882812 228.625 C 122.753906 228.621094 91.832031 197.699219 91.832031 159.5625 C 91.832031 121.417969 122.753906 90.523438 160.882812 90.503906 C 178.347656 90.515625 194.296875 97.003906 206.453125 107.695312 C 216.039062 116.121094 210.09375 131.917969 197.335938 131.917969 Z M 197.335938 131.917969 " fill-opacity="1" fill-rule="nonzero"/></g><g clip-path="url(#5ca6981a39)"><path fill="#09b7d3" d="M 177.664062 243.09375 C 181.042969 243.09375 184.292969 244.34375 186.828125 246.570312 C 194.121094 252.976562 203.644531 256.886719 214.113281 256.886719 C 237.0625 256.886719 255.648438 238.203125 255.539062 215.242188 C 255.433594 192.359375 236.535156 174 213.65625 174 L 158.871094 174 C 151.242188 174 145.058594 167.820312 145.058594 160.191406 C 145.058594 152.5625 151.242188 146.378906 158.871094 146.378906 L 214.117188 146.378906 C 252.242188 146.378906 283.175781 177.300781 283.175781 215.4375 C 283.175781 253.578125 252.246094 284.476562 214.117188 284.496094 C 196.652344 284.480469 180.707031 277.996094 168.550781 267.304688 C 158.964844 258.886719 164.90625 243.09375 177.664062 243.09375 Z M 177.664062 243.09375 " fill-opacity="1" fill-rule="nonzero"/></g></svg>